<svg width="24" height="24" viewBox="0 0 24 24" fill="none" xmlns="http://www.w3.org/2000/svg">
<path d="M6.99977 20.0003V8.97526C6.99977 8.42526 7.19977 7.95859 7.59977 7.57526C7.99977 7.19192 8.47477 7.00026 9.02477 7.00026H19.9998C20.5498 7.00026 21.0206 7.19609 21.4123 7.58776C21.8039 7.97942 21.9998 8.45026 21.9998 9.00026V17.0003L16.9998 22.0003H8.99977C8.44977 22.0003 7.97894 21.8044 7.58727 21.4128C7.1956 21.0211 6.99977 20.5503 6.99977 20.0003ZM2.02477 6.25026C1.92477 5.70026 2.0331 5.20442 2.34977 4.76276C2.66644 4.32109 3.09977 4.05026 3.64977 3.95026L14.4998 2.02526C15.0498 1.92526 15.5456 2.03359 15.9873 2.35026C16.4289 2.66692 16.6998 3.10026 16.7998 3.65026L17.0498 5.00026H14.9998L14.8248 4.00026L3.99977 5.92526L4.99977 11.5753V18.5503C4.7331 18.4003 4.50394 18.2003 4.31227 17.9503C4.1206 17.7003 3.99977 17.4169 3.94977 17.1003L2.02477 6.25026ZM8.99977 9.00026V20.0003H15.9998V16.0003H19.9998V9.00026H8.99977Z" fill="#01494E"/>
</svg>
