<svg width="25" height="25" viewBox="0 0 25 25" fill="none" xmlns="http://www.w3.org/2000/svg">
<path d="M6.26031 22.5014V8.72769C6.26031 8.04059 6.51018 7.45757 7.0099 6.97867C7.50963 6.49976 8.10303 6.26031 8.79016 6.26031H22.5014C23.1885 6.26031 23.7767 6.50496 24.266 6.99428C24.7553 7.48358 25 8.07182 25 8.75892V18.7534L18.7534 25H8.75894C8.0718 25 7.48358 24.7553 6.99427 24.266C6.50497 23.7767 6.26031 23.1885 6.26031 22.5014ZM0.0449755 5.32331C-0.0799558 4.63619 0.0553849 4.01674 0.451 3.46496C0.846628 2.91317 1.388 2.57484 2.0751 2.44991L15.6302 0.044976C16.3173 -0.0799572 16.9367 0.0553871 17.4885 0.451003C18.0403 0.846628 18.3786 1.38799 18.5036 2.07512L18.8159 3.76168H16.2548L16.0362 2.51237L2.51238 4.91729L3.76169 11.9759V20.6899C3.42854 20.5025 3.14224 20.2526 2.90277 19.9403C2.66332 19.6279 2.51238 19.274 2.4499 18.8783L0.0449755 5.32331ZM8.75894 8.75892V22.5014H17.5041V17.5041H22.5014V8.75892H8.75894Z" fill="white"/>
</svg>
