<svg width="569" height="216" viewBox="0 0 569 216" fill="none" xmlns="http://www.w3.org/2000/svg">
<rect x="29" y="33" width="150" height="150" rx="20" fill="#F9F9F9"/>
<path d="M345.814 83.1919C333.661 96.6664 334.208 117.934 347.041 130.695C359.872 143.456 380.127 142.878 392.279 129.404C404.433 115.929 403.882 94.6614 391.05 81.9004" stroke="#202123" stroke-width="12"/>
<path d="M354.381 76.5977C338.636 84.9488 332.371 105.006 340.392 121.4C348.413 137.793 367.678 144.312 383.422 135.96C399.166 127.609 405.428 107.55 397.407 91.1574" stroke="#202123" stroke-width="12"/>
<path d="M340.301 91.3904C332.545 108.116 339.125 128.3 355.002 136.472C370.879 144.643 390.037 137.707 397.792 120.98C405.548 104.254 398.964 84.0712 383.087 75.9004" stroke="#202123" stroke-width="12"/>
<path d="M374 70H364V95H374V70Z" fill="#202123"/>
<path d="M425.446 145.7C423.886 145.7 422.446 145.22 421.126 144.26C419.806 143.3 419.146 141.86 419.146 139.94V79.28C419.146 76.52 419.986 74.48 421.666 73.16C423.466 71.72 425.386 71 427.426 71C430.546 71 432.826 72.2 434.266 74.6L463.966 121.22C464.566 122.18 465.226 122.66 465.946 122.66C467.026 122.66 467.566 121.82 467.566 120.14L466.846 76.76C466.846 74.84 467.506 73.4 468.826 72.44C470.146 71.48 471.586 71 473.146 71C474.706 71 476.146 71.48 477.466 72.44C478.786 73.4 479.446 74.84 479.446 76.76V137.78C479.446 140.42 478.666 142.4 477.106 143.72C475.546 145.04 473.746 145.7 471.706 145.7C470.266 145.7 468.826 145.34 467.386 144.62C466.066 144.02 464.926 143 463.966 141.56L434.806 96.2C434.206 95.24 433.546 94.76 432.826 94.76C431.746 94.76 431.206 95.6 431.206 97.28L431.746 139.94C431.746 141.86 431.086 143.3 429.766 144.26C428.566 145.22 427.126 145.7 425.446 145.7ZM505.511 143.9C502.511 143.9 500.111 143 498.311 141.2C496.511 139.4 495.611 137 495.611 134V81.26C495.611 78.5 496.511 76.28 498.311 74.6C500.231 72.8 502.451 71.9 504.971 71.9H532.151C534.191 71.9 535.631 72.44 536.471 73.52C537.431 74.48 537.911 75.74 537.911 77.3C537.911 78.74 537.371 80 536.291 81.08C535.331 82.16 533.951 82.7 532.151 82.7H512.891C509.771 82.7 508.211 84.26 508.211 87.38V97.28C508.211 100.4 509.651 101.96 512.531 101.96H530.351C532.391 101.96 533.831 102.5 534.671 103.58C535.631 104.66 536.111 105.92 536.111 107.36C536.111 108.68 535.571 109.94 534.491 111.14C533.531 112.22 532.151 112.76 530.351 112.76H512.531C509.651 112.76 508.211 114.26 508.211 117.26V128.24C508.211 131.36 509.711 132.92 512.711 132.92H533.951C535.991 132.92 537.431 133.52 538.271 134.72C539.231 135.8 539.711 137.06 539.711 138.5C539.711 139.94 539.171 141.2 538.091 142.28C537.131 143.36 535.751 143.9 533.951 143.9H505.511Z" fill="#202123"/>
<path d="M222.9 143.9C220.38 143.9 218.1 143.06 216.06 141.38C214.02 139.58 213 137.12 213 134V81.2604C213 78.5004 213.9 76.2804 215.7 74.6004C217.62 72.8004 219.84 71.9004 222.36 71.9004H239.28C244.92 71.9004 249.9 73.4604 254.22 76.5804C258.54 79.5804 260.7 83.9004 260.7 89.5404C260.7 92.5404 260.04 95.3604 258.72 98.0004C257.52 100.52 255.9 102.44 253.86 103.76C257.34 104.96 260.1 107.18 262.14 110.42C264.18 113.54 265.2 117.26 265.2 121.58C265.2 128.78 263.04 134.3 258.72 138.14C254.4 141.98 249 143.9 242.52 143.9H222.9ZM229.92 132.92H242.52C246.36 132.92 249.12 131.78 250.8 129.5C252.6 127.1 253.5 124.52 253.5 121.76C253.5 119.24 252.66 116.84 250.98 114.56C249.3 112.28 246.72 111.14 243.24 111.14H229.2C226.56 111.14 225.24 112.52 225.24 115.28V128.24C225.24 131.36 226.8 132.92 229.92 132.92ZM229.2 101.06H239.64C242.64 101.06 244.92 100.04 246.48 98.0004C248.04 95.9604 248.82 93.8004 248.82 91.5204C248.82 89.3604 248.04 87.3804 246.48 85.5804C245.04 83.6604 242.76 82.7004 239.64 82.7004H230.1C226.86 82.7004 225.24 84.2604 225.24 87.3804V96.9204C225.24 99.6804 226.56 101.06 229.2 101.06ZM287.763 143.9C284.763 143.9 282.363 143 280.563 141.2C278.763 139.4 277.863 137 277.863 134V81.2604C277.863 78.5004 278.763 76.2804 280.563 74.6004C282.483 72.8004 284.703 71.9004 287.223 71.9004H314.403C316.443 71.9004 317.883 72.4404 318.723 73.5204C319.683 74.4804 320.163 75.7404 320.163 77.3004C320.163 78.7404 319.623 80.0004 318.543 81.0804C317.583 82.1604 316.203 82.7004 314.403 82.7004H295.143C292.023 82.7004 290.463 84.2604 290.463 87.3804V97.2804C290.463 100.4 291.903 101.96 294.783 101.96H312.603C314.643 101.96 316.083 102.5 316.923 103.58C317.883 104.66 318.363 105.92 318.363 107.36C318.363 108.68 317.823 109.94 316.743 111.14C315.783 112.22 314.403 112.76 312.603 112.76H294.783C291.903 112.76 290.463 114.26 290.463 117.26V128.24C290.463 131.36 291.963 132.92 294.963 132.92H316.203C318.243 132.92 319.683 133.52 320.523 134.72C321.483 135.8 321.963 137.06 321.963 138.5C321.963 139.94 321.423 141.2 320.343 142.28C319.383 143.36 318.003 143.9 316.203 143.9H287.763Z" fill="#202123"/>
<path d="M81.8807 139.38C93.9914 150.445 159.6 178.625 147.523 161.769C135.447 144.913 147.523 108.918 147.523 108.918L62.7832 108.031C62.7832 108.031 69.7701 128.315 81.8807 139.38Z" fill="#505355"/>
<path d="M133.343 71.6894C116.349 46.2491 77.779 40.0333 62.9901 64.2508C54.1358 78.7501 62.7812 108.029 62.7812 108.029L147.347 108.767C147.347 108.767 150.337 97.1297 133.343 71.6894Z" fill="#FFD300"/>
<path d="M76.7568 107.106H105.636V136.613H79.5516L76.7568 107.106Z" fill="#FFD300"/>
<path d="M76.7568 108.029L91.9184 124.188L105.636 137.536L79.5516 136.614L76.7568 108.029Z" fill="#505355"/>
</svg>
