<svg width="24" height="24" viewBox="0 0 24 24" fill="none" xmlns="http://www.w3.org/2000/svg">
<path d="M12 7C11.1667 7 10.4583 6.70833 9.875 6.125C9.29167 5.54167 9 4.83333 9 4C9 3.16667 9.29167 2.45833 9.875 1.875C10.4583 1.29167 11.1667 1 12 1C12.8333 1 13.5417 1.29167 14.125 1.875C14.7083 2.45833 15 3.16667 15 4C15 4.83333 14.7083 5.54167 14.125 6.125C13.5417 6.70833 12.8333 7 12 7Z" fill="white"/>
<path d="M12 15C11.1667 15 10.4583 14.7083 9.875 14.125C9.29167 13.5417 9 12.8333 9 12C9 11.1667 9.29167 10.4583 9.875 9.875C10.4583 9.29167 11.1667 9 12 9C12.8333 9 13.5417 9.29167 14.125 9.875C14.7083 10.4583 15 11.1667 15 12C15 12.8333 14.7083 13.5417 14.125 14.125C13.5417 14.7083 12.8333 15 12 15Z" fill="white"/>
<path d="M12 23C11.1667 23 10.4583 22.7083 9.875 22.125C9.29167 21.5417 9 20.8333 9 20C9 19.1667 9.29167 18.4583 9.875 17.875C10.4583 17.2917 11.1667 17 12 17C12.8333 17 13.5417 17.2917 14.125 17.875C14.7083 18.4583 15 19.1667 15 20C15 20.8333 14.7083 21.5417 14.125 22.125C13.5417 22.7083 12.8333 23 12 23Z" fill="white"/>
</svg>
