<svg width="509" height="150" viewBox="0 0 509 150" fill="none" xmlns="http://www.w3.org/2000/svg">
<path d="M314.814 50.1919C302.661 63.6664 303.208 84.9344 316.041 97.6954C328.872 110.456 349.127 109.878 361.279 96.4044C373.433 82.9294 372.882 61.6614 360.05 48.9004" stroke="#494949" stroke-width="12"/>
<path d="M323.381 43.5977C307.636 51.9488 301.371 72.0064 309.392 88.4004C317.413 104.793 336.678 111.312 352.422 102.96C368.166 94.6094 374.428 74.5504 366.407 58.1574" stroke="#494949" stroke-width="12"/>
<path d="M309.301 58.3904C301.545 75.1164 308.125 95.3004 324.002 103.472C339.879 111.643 359.037 104.707 366.792 87.9804C374.548 71.2544 367.964 51.0712 352.087 42.9004" stroke="#494949" stroke-width="12"/>
<path d="M333.5 61.5V37.5H342.5V61.5H333.5Z" fill="#202123" stroke="#494949"/>
<path d="M394.446 112.7C392.886 112.7 391.446 112.22 390.126 111.26C388.806 110.3 388.146 108.86 388.146 106.94V46.28C388.146 43.52 388.986 41.48 390.666 40.16C392.466 38.72 394.386 38 396.426 38C399.546 38 401.826 39.2 403.266 41.6L432.966 88.22C433.566 89.18 434.226 89.66 434.946 89.66C436.026 89.66 436.566 88.82 436.566 87.14L435.846 43.76C435.846 41.84 436.506 40.4 437.826 39.44C439.146 38.48 440.586 38 442.146 38C443.706 38 445.146 38.48 446.466 39.44C447.786 40.4 448.446 41.84 448.446 43.76V104.78C448.446 107.42 447.666 109.4 446.106 110.72C444.546 112.04 442.746 112.7 440.706 112.7C439.266 112.7 437.826 112.34 436.386 111.62C435.066 111.02 433.926 110 432.966 108.56L403.806 63.2C403.206 62.24 402.546 61.76 401.826 61.76C400.746 61.76 400.206 62.6 400.206 64.28L400.746 106.94C400.746 108.86 400.086 110.3 398.766 111.26C397.566 112.22 396.126 112.7 394.446 112.7ZM474.511 110.9C471.511 110.9 469.111 110 467.311 108.2C465.511 106.4 464.611 104 464.611 101V48.26C464.611 45.5 465.511 43.28 467.311 41.6C469.231 39.8 471.451 38.9 473.971 38.9H501.151C503.191 38.9 504.631 39.44 505.471 40.52C506.431 41.48 506.911 42.74 506.911 44.3C506.911 45.74 506.371 47 505.291 48.08C504.331 49.16 502.951 49.7 501.151 49.7H481.891C478.771 49.7 477.211 51.26 477.211 54.38V64.28C477.211 67.4 478.651 68.96 481.531 68.96H499.351C501.391 68.96 502.831 69.5 503.671 70.58C504.631 71.66 505.111 72.92 505.111 74.36C505.111 75.68 504.571 76.94 503.491 78.14C502.531 79.22 501.151 79.76 499.351 79.76H481.531C478.651 79.76 477.211 81.26 477.211 84.26V95.24C477.211 98.36 478.711 99.92 481.711 99.92H502.951C504.991 99.92 506.431 100.52 507.271 101.72C508.231 102.8 508.711 104.06 508.711 105.5C508.711 106.94 508.171 108.2 507.091 109.28C506.131 110.36 504.751 110.9 502.951 110.9H474.511Z" fill="#494949"/>
<path d="M191.9 110.9C189.38 110.9 187.1 110.06 185.06 108.38C183.02 106.58 182 104.12 182 101V48.2604C182 45.5004 182.9 43.2804 184.7 41.6004C186.62 39.8004 188.84 38.9004 191.36 38.9004H208.28C213.92 38.9004 218.9 40.4604 223.22 43.5804C227.54 46.5804 229.7 50.9004 229.7 56.5404C229.7 59.5404 229.04 62.3604 227.72 65.0004C226.52 67.5204 224.9 69.4404 222.86 70.7604C226.34 71.9604 229.1 74.1804 231.14 77.4204C233.18 80.5404 234.2 84.2604 234.2 88.5804C234.2 95.7804 232.04 101.3 227.72 105.14C223.4 108.98 218 110.9 211.52 110.9H191.9ZM198.92 99.9204H211.52C215.36 99.9204 218.12 98.7804 219.8 96.5004C221.6 94.1004 222.5 91.5204 222.5 88.7604C222.5 86.2404 221.66 83.8404 219.98 81.5604C218.3 79.2804 215.72 78.1404 212.24 78.1404H198.2C195.56 78.1404 194.24 79.5204 194.24 82.2804V95.2404C194.24 98.3604 195.8 99.9204 198.92 99.9204ZM198.2 68.0604H208.64C211.64 68.0604 213.92 67.0404 215.48 65.0004C217.04 62.9604 217.82 60.8004 217.82 58.5204C217.82 56.3604 217.04 54.3804 215.48 52.5804C214.04 50.6604 211.76 49.7004 208.64 49.7004H199.1C195.86 49.7004 194.24 51.2604 194.24 54.3804V63.9204C194.24 66.6804 195.56 68.0604 198.2 68.0604ZM256.763 110.9C253.763 110.9 251.363 110 249.563 108.2C247.763 106.4 246.863 104 246.863 101V48.2604C246.863 45.5004 247.763 43.2804 249.563 41.6004C251.483 39.8004 253.703 38.9004 256.223 38.9004H283.403C285.443 38.9004 286.883 39.4404 287.723 40.5204C288.683 41.4804 289.163 42.7404 289.163 44.3004C289.163 45.7404 288.623 47.0004 287.543 48.0804C286.583 49.1604 285.203 49.7004 283.403 49.7004H264.143C261.023 49.7004 259.463 51.2604 259.463 54.3804V64.2804C259.463 67.4004 260.903 68.9604 263.783 68.9604H281.603C283.643 68.9604 285.083 69.5004 285.923 70.5804C286.883 71.6604 287.363 72.9204 287.363 74.3604C287.363 75.6804 286.823 76.9404 285.743 78.1404C284.783 79.2204 283.403 79.7604 281.603 79.7604H263.783C260.903 79.7604 259.463 81.2604 259.463 84.2604V95.2404C259.463 98.3604 260.963 99.9204 263.963 99.9204H285.203C287.243 99.9204 288.683 100.52 289.523 101.72C290.483 102.8 290.963 104.06 290.963 105.5C290.963 106.94 290.423 108.2 289.343 109.28C288.383 110.36 287.003 110.9 285.203 110.9H256.763Z" fill="#494949"/>
<rect width="150" height="150" rx="20" fill="#F9F9F9"/>
<rect x="73.6304" y="72.0723" width="61" height="17" rx="8.5" transform="rotate(-149.242 73.6304 72.0723)" fill="#4537FF"/>
<rect x="119.096" y="124.731" width="61" height="17" rx="8.5" transform="rotate(-149.242 119.096 124.731)" fill="#FFB224"/>
<rect x="124.079" y="32.2754" width="60" height="18" rx="9" transform="rotate(120.758 124.079 32.2754)" fill="#E01C1C"/>
<rect x="71.0732" y="76.3701" width="60" height="18" rx="9" transform="rotate(120.758 71.0732 76.3701)" fill="#1F8810"/>
<ellipse cx="58.9918" cy="79.0715" rx="9" ry="8.5" transform="rotate(-149.242 58.9918 79.0715)" fill="#A5F09B"/>
<ellipse cx="70.2433" cy="60.1652" rx="9" ry="8.5" transform="rotate(-149.242 70.2433 60.1652)" fill="#A59EFF"/>
<ellipse cx="78.7565" cy="90.8342" rx="9" ry="8.5" transform="rotate(-149.242 78.7565 90.8342)" fill="#F0ED9B"/>
<ellipse cx="90.0074" cy="71.9289" rx="9" ry="8.5" transform="rotate(-149.242 90.0074 71.9289)" fill="#F09B9B"/>
</svg>
