<svg width="200" height="200" viewBox="0 0 200 200" fill="none" xmlns="http://www.w3.org/2000/svg">
<path d="M155 25H45C33.9543 25 25 33.9543 25 45V155C25 166.046 33.9543 175 45 175H155C166.046 175 175 166.046 175 155V45C175 33.9543 166.046 25 155 25Z" fill="#F9F9F9"/>
<path d="M77.8807 131.38C89.9914 142.445 155.6 170.625 143.523 153.769C131.447 136.913 143.523 100.918 143.523 100.918L58.7832 100.031C58.7832 100.031 65.7701 120.315 77.8807 131.38Z" fill="#505355"/>
<path d="M129.343 63.6894C112.349 38.2491 73.779 32.0333 58.9901 56.2508C50.1358 70.7501 58.7812 100.029 58.7812 100.029L143.347 100.767C143.347 100.767 146.337 89.1297 129.343 63.6894Z" fill="#FFD300"/>
<path d="M72.7568 99.1064H101.636V128.613H75.5516L72.7568 99.1064Z" fill="#FFD300"/>
<path d="M72.7568 100.029L87.9184 116.188L101.636 129.536L75.5516 128.614L72.7568 100.029Z" fill="#505355"/>
</svg>
