<svg width="150" height="150" viewBox="0 0 150 150" fill="none" xmlns="http://www.w3.org/2000/svg">
<rect width="150" height="150" rx="20" fill="#F9F9F9"/>
<rect x="73.6304" y="72.0723" width="61" height="17" rx="8.5" transform="rotate(-149.242 73.6304 72.0723)" fill="#4537FF"/>
<rect x="119.096" y="124.731" width="61" height="17" rx="8.5" transform="rotate(-149.242 119.096 124.731)" fill="#FFB224"/>
<rect x="124.079" y="32.2754" width="60" height="18" rx="9" transform="rotate(120.758 124.079 32.2754)" fill="#E01C1C"/>
<rect x="71.0732" y="76.3701" width="60" height="18" rx="9" transform="rotate(120.758 71.0732 76.3701)" fill="#1F8810"/>
<ellipse cx="58.9918" cy="79.0715" rx="9" ry="8.5" transform="rotate(-149.242 58.9918 79.0715)" fill="#A5F09B"/>
<ellipse cx="70.2433" cy="60.1652" rx="9" ry="8.5" transform="rotate(-149.242 70.2433 60.1652)" fill="#A59EFF"/>
<ellipse cx="78.7565" cy="90.8342" rx="9" ry="8.5" transform="rotate(-149.242 78.7565 90.8342)" fill="#F0ED9B"/>
<ellipse cx="90.0074" cy="71.9289" rx="9" ry="8.5" transform="rotate(-149.242 90.0074 71.9289)" fill="#F09B9B"/>
</svg>
